<svg width="32" height="32" viewBox="0 0 32 32" fill="none" xmlns="http://www.w3.org/2000/svg">
<path d="M0.278961 26.5338C0.278961 28.6639 1.77248 30.5001 3.85713 30.938C6.98472 31.5948 11.271 32 16 32C20.729 32 25.0153 31.5948 28.1429 30.938C30.2275 30.5001 31.721 28.664 31.721 26.5338C31.721 25.8065 31.0164 25.2839 30.3224 25.5013C27.2011 26.479 21.952 27.1211 16 27.1211C10.048 27.1211 4.79893 26.479 1.67755 25.5012C0.983589 25.2838 0.278961 25.8065 0.278961 26.5338V26.5338Z" fill="url(#paint0_linear_916_77)"/>
<path d="M12.7163 27.0545L17.6451 31.9832C21.7187 31.9011 25.3823 31.5176 28.1428 30.9379C28.9303 30.7725 29.6332 30.4073 30.2034 29.9023L26.6403 26.3393C23.7034 26.829 20.012 27.121 15.9999 27.121C14.8772 27.121 13.7795 27.0981 12.7163 27.0545Z" fill="url(#paint1_linear_916_77)"/>
<path d="M30.3225 25.5012C29.0425 25.9022 27.4044 26.2465 25.5072 26.5134L29.4409 30.4472C30.82 29.6648 31.7211 28.1881 31.7211 26.5338C31.721 25.8065 31.0164 25.2838 30.3225 25.5012V25.5012Z" fill="url(#paint2_linear_916_77)"/>
<g opacity="0.6">
<g opacity="0.6">
<path opacity="0.6" d="M4.59089 28.505C4.88298 28.505 5.11977 28.2682 5.11977 27.9761C5.11977 27.6841 4.88298 27.4473 4.59089 27.4473C4.2988 27.4473 4.06201 27.6841 4.06201 27.9761C4.06201 28.2682 4.2988 28.505 4.59089 28.505Z" fill="url(#paint3_linear_916_77)"/>
<path opacity="0.6" d="M3.60885 29.7614C3.83947 29.7614 4.02642 29.5745 4.02642 29.3439C4.02642 29.1133 3.83947 28.9263 3.60885 28.9263C3.37824 28.9263 3.19128 29.1133 3.19128 29.3439C3.19128 29.5745 3.37824 29.7614 3.60885 29.7614Z" fill="url(#paint4_linear_916_77)"/>
<path opacity="0.6" d="M5.42883 29.946C5.56786 29.946 5.68056 29.8333 5.68056 29.6942C5.68056 29.5552 5.56786 29.4425 5.42883 29.4425C5.2898 29.4425 5.17709 29.5552 5.17709 29.6942C5.17709 29.8333 5.2898 29.946 5.42883 29.946Z" fill="url(#paint5_linear_916_77)"/>
</g>
<g opacity="0.6">
<path opacity="0.6" d="M7.38742 28.7656C7.60328 28.7656 7.77826 28.5906 7.77826 28.3748C7.77826 28.1589 7.60328 27.9839 7.38742 27.9839C7.17157 27.9839 6.99658 28.1589 6.99658 28.3748C6.99658 28.5906 7.17157 28.7656 7.38742 28.7656Z" fill="url(#paint6_linear_916_77)"/>
<path opacity="0.6" d="M6.15041 28.8162C6.3208 28.8162 6.45892 28.6781 6.45892 28.5077C6.45892 28.3373 6.3208 28.1992 6.15041 28.1992C5.98002 28.1992 5.84189 28.3373 5.84189 28.5077C5.84189 28.6781 5.98002 28.8162 6.15041 28.8162Z" fill="url(#paint7_linear_916_77)"/>
<path opacity="0.6" d="M6.8541 29.8687C6.95685 29.8687 7.04014 29.7854 7.04014 29.6827C7.04014 29.5799 6.95685 29.4966 6.8541 29.4966C6.75135 29.4966 6.66806 29.5799 6.66806 29.6827C6.66806 29.7854 6.75135 29.8687 6.8541 29.8687Z" fill="url(#paint8_linear_916_77)"/>
</g>
</g>
<path d="M0.638428 28.2946C1.20113 29.6156 2.38042 30.6278 3.85713 30.938C6.98472 31.5949 11.271 32 16 32C20.729 32 25.0153 31.5949 28.1429 30.938C29.6196 30.6278 30.7989 29.6156 31.3616 28.2946H0.638428Z" fill="url(#paint9_linear_916_77)"/>
<path d="M0.278961 22.2607V23.2745C0.278961 24.7414 1.26751 26.0299 2.68856 26.394C5.86867 27.2086 10.6512 27.7269 16 27.7269C21.3488 27.7269 26.1313 27.2086 29.3114 26.394C30.7325 26.0299 31.721 24.7415 31.721 23.2745V22.2607C31.721 21.5334 31.0164 21.0108 30.3224 21.2282C27.2011 22.206 21.952 22.848 16 22.848C10.048 22.848 4.79893 22.206 1.67755 21.2282C0.983589 21.0108 0.278961 21.5335 0.278961 22.2607V22.2607Z" fill="url(#paint10_linear_916_77)"/>
<path d="M30.3224 21.2282C27.2011 22.206 21.9521 22.848 16 22.848C10.048 22.848 4.79892 22.206 1.67754 21.2282C1.2941 21.1081 0.908096 21.2146 0.638794 21.4559L6.27054 27.0877C9.04463 27.491 12.3931 27.7269 15.9999 27.7269C21.3488 27.7269 26.1313 27.2086 29.3114 26.394C30.7324 26.0299 31.721 24.7415 31.721 23.2745V22.2607C31.721 21.5335 31.0164 21.0108 30.3224 21.2282Z" fill="url(#paint11_linear_916_77)"/>
<path d="M31.721 23.2745V22.5621L30.3743 21.2154C30.3569 21.2199 30.3397 21.2228 30.3224 21.2282C28.6551 21.7505 26.3804 22.1769 23.7161 22.4609V24.2038C23.7161 24.5946 23.8929 24.9439 24.1705 25.1768L26.0358 27.0421C27.2534 26.8568 28.3553 26.6389 29.3114 26.394C30.7325 26.0299 31.721 24.7415 31.721 23.2745V23.2745Z" fill="url(#paint12_linear_916_77)"/>
<path d="M22.8481 22.5471C20.7475 22.7407 18.4326 22.848 16 22.848C13.5787 22.848 11.2738 22.7417 9.18105 22.5498C8.98861 22.8974 9.01898 23.3572 9.33722 23.6754L13.3451 27.6833C14.2108 27.7118 15.097 27.7269 16 27.7269C20.2503 27.7269 24.1419 27.3994 27.1572 26.8562L22.8481 22.5471Z" fill="url(#paint13_linear_916_77)"/>
<path d="M22.2697 22.1074C18.1816 20.8688 13.8183 20.8688 9.73025 22.1074C9.04903 22.3139 8.83387 23.1721 9.33722 23.6754L14.199 28.5372C15.1937 29.5319 16.8063 29.5319 17.801 28.5372L22.6628 23.6754C23.1661 23.1721 22.951 22.3139 22.2697 22.1074Z" fill="url(#paint14_linear_916_77)"/>
<path d="M31.721 20.5939C31.721 16.1468 0.278961 16.1468 0.278961 20.5939C0.278961 21.3606 1.21418 21.9951 2.76141 22.4974C3.32348 22.6799 3.84188 22.9761 4.27532 23.3778L4.32182 23.4208C5.26425 24.2942 6.6287 24.5392 7.81609 24.0484L7.81697 24.0481C8.83131 23.6288 9.98782 23.7416 10.9021 24.3489L10.989 24.4067C11.9972 25.0763 13.2936 25.1312 14.3548 24.5493L14.4358 24.5049C15.4104 23.9704 16.5904 23.9703 17.5651 24.5046L17.6468 24.5493C18.7081 25.1311 20.0046 25.076 21.0126 24.4062L21.1181 24.3361C22.0272 23.7321 23.1785 23.624 24.1842 24.0481C25.3629 24.5452 26.7235 24.3058 27.6617 23.4362L27.7249 23.3777C28.1582 22.976 28.6766 22.6798 29.2386 22.4974C30.7859 21.9951 31.721 21.3606 31.721 20.5939V20.5939Z" fill="url(#paint15_linear_916_77)"/>
<path d="M31.721 20.5937C31.721 21.3606 30.7854 21.9943 29.2383 22.4966C28.6765 22.6796 28.1579 22.9759 27.7247 23.3775L27.6614 23.436C27.0489 24.0044 26.2542 24.3035 25.449 24.3035C25.0224 24.3035 24.592 24.2201 24.1846 24.0475C23.179 23.6238 22.0277 23.7322 21.1181 24.3361L21.0126 24.4061C20.0051 25.0752 18.7081 25.1308 17.6469 24.5489L17.5654 24.5038C16.5906 23.9699 15.4105 23.9699 14.4356 24.5048L14.3551 24.5489C13.2939 25.1307 11.9969 25.0761 10.9894 24.4061L10.9022 24.3485C9.9877 23.7408 8.83162 23.6286 7.81741 24.0475H7.81647C7.12151 24.3342 6.36706 24.3706 5.67115 24.175L1.62491 20.1288C1.40926 19.9303 1.22711 19.6974 1.08618 19.4406C2.896 18.2433 7.52414 17.5387 12.6507 17.3269C14.8526 17.2358 17.1475 17.2358 19.3494 17.3269C25.9484 17.5991 31.721 18.6881 31.721 20.5937V20.5937Z" fill="url(#paint16_linear_916_77)"/>
<path d="M11.0707 17.409C7.62277 17.6258 4.52655 18.0769 2.54431 18.7628C2.60894 19.0679 2.78205 19.3328 3.02287 19.5142L7.62729 24.1186C7.6906 24.0969 7.75372 24.0742 7.81609 24.0484L7.81697 24.0481C8.83131 23.6288 9.98783 23.7415 10.9021 24.3489L10.989 24.4066C11.9972 25.0763 13.2936 25.1312 14.3548 24.5493L14.4358 24.5048C15.4104 23.9704 16.5904 23.9703 17.5651 24.5046L17.6468 24.5494C17.9311 24.7052 18.2324 24.8139 18.5404 24.8787L11.0707 17.409Z" fill="url(#paint17_linear_916_77)"/>
<path d="M29.0847 19.9258H23.7161V23.8929C23.8745 23.9329 24.0312 23.9836 24.1842 24.0481C25.3629 24.5452 26.7235 24.3058 27.6617 23.4362L27.7248 23.3777C28.1582 22.976 28.6766 22.6799 29.2386 22.4974C29.9256 22.2743 30.4915 22.0252 30.9089 21.75L29.0847 19.9258Z" fill="url(#paint18_linear_916_77)"/>
<path d="M23.7161 19.9258V24.2038C23.7161 24.9052 24.2847 25.4738 24.9861 25.4738C25.6875 25.4738 26.2561 24.9052 26.2561 24.2038V23.3371C26.2561 23.0941 26.4531 22.8971 26.6961 22.8971C26.9391 22.8971 27.136 23.0941 27.136 23.3371V23.4076C27.136 23.9457 27.5723 24.3819 28.1104 24.3819C28.6485 24.3819 29.0847 23.9457 29.0847 23.4076V19.9258H23.7161Z" fill="url(#paint19_linear_916_77)"/>
<path d="M0.744843 18.0514V18.1218C0.744843 19.3483 1.56178 20.4275 2.74484 20.751C5.82406 21.5928 10.6164 22.134 16 22.134C21.3836 22.134 26.1759 21.5928 29.2551 20.751C30.4382 20.4275 31.2551 19.3483 31.2551 18.1218C31.2551 18.0984 31.2551 18.0751 31.2551 18.0516C31.2551 16.7649 30.0459 15.8225 28.7979 16.1355C25.713 16.909 21.1251 17.3996 16 17.3996C10.8749 17.3996 6.28699 16.909 3.20213 16.1356C1.954 15.8226 0.744843 16.7647 0.744843 18.0514V18.0514Z" fill="url(#paint20_linear_916_77)"/>
<path d="M10.8922 17.2304C7.86786 17.0243 5.21493 16.6402 3.20207 16.1355C2.96922 16.0771 2.73775 16.0625 2.5152 16.0856V18.5001C2.5152 18.915 2.71504 19.2823 3.02281 19.5141L4.71153 21.2028C7.64932 21.7722 11.531 22.1223 15.795 22.1332L10.8922 17.2304Z" fill="url(#paint21_linear_916_77)"/>
<path d="M28.7372 16.1503C25.6531 16.9152 21.092 17.3996 16 17.3996C15.7803 17.3996 15.562 17.3983 15.3443 17.3966L19.9802 22.0324C23.7136 21.8386 26.9603 21.3784 29.2551 20.7511C30.2743 20.4724 31.0203 19.6324 31.2078 18.621L28.7372 16.1503Z" fill="url(#paint22_linear_916_77)"/>
<path d="M0.278961 14.3066V15.3204C0.278961 16.7873 1.26751 18.0759 2.68856 18.4399C5.86867 19.2545 10.6512 19.7729 16 19.7729C21.3488 19.7729 26.1313 19.2545 29.3114 18.4399C30.7325 18.0759 31.721 16.7874 31.721 15.3204V14.3066C31.721 13.5794 31.0164 13.0567 30.3224 13.2741C27.2011 14.2519 21.952 14.8939 16 14.8939C10.048 14.8939 4.79893 14.2519 1.67755 13.2741C0.983589 13.0567 0.278961 13.5794 0.278961 14.3066V14.3066Z" fill="url(#paint23_linear_916_77)"/>
<path d="M30.3224 13.2741C27.2011 14.2519 21.9521 14.8939 16 14.8939C10.048 14.8939 4.79892 14.2519 1.67754 13.2741C1.2941 13.154 0.908096 13.2605 0.638794 13.5019L6.27054 19.1336C9.04469 19.537 12.3931 19.7729 16 19.7729C21.3488 19.7729 26.1313 19.2545 29.3114 18.4399C30.7325 18.0759 31.721 16.7874 31.721 15.3204V14.3066C31.721 13.5794 31.0164 13.0567 30.3224 13.2741V13.2741Z" fill="url(#paint24_linear_916_77)"/>
<path d="M30.4644 17.8775L26.6908 14.1039C23.7459 14.5986 20.035 14.8939 16 14.8939C15.1218 14.8939 14.2594 14.8796 13.4163 14.8526C13.3506 15.1491 13.4246 15.4769 13.6691 15.7214L17.677 19.7293C17.8417 19.7347 18.008 19.7392 18.1742 19.7436C22.6351 19.6241 26.5692 19.1423 29.3114 18.4399C29.7404 18.33 30.1296 18.1354 30.4644 17.8775Z" fill="url(#paint25_linear_916_77)"/>
<path d="M26.6016 14.1534C22.5136 12.9147 18.1502 12.9147 14.0621 14.1534C13.3809 14.3598 13.1658 15.218 13.6691 15.7214L18.5309 20.5832C19.5255 21.5778 21.1382 21.5778 22.1328 20.5832L26.9946 15.7214C27.498 15.218 27.2828 14.3598 26.6016 14.1534V14.1534Z" fill="url(#paint26_linear_916_77)"/>
<path d="M2.68856 18.4399C5.34167 19.1195 9.11052 19.5926 13.3926 19.7309L8.15447 14.4927C7.42186 14.413 6.71906 14.3225 6.05113 14.2221H2.51526V18.3896C2.57236 18.4077 2.62996 18.4249 2.68856 18.4399Z" fill="url(#paint27_linear_916_77)"/>
<path d="M2.51526 14.2221V18.5001C2.51526 19.2016 3.08385 19.7702 3.78528 19.7702C4.48671 19.7702 5.05531 19.2016 5.05531 18.5001V17.6334C5.05531 17.3904 5.25226 17.1935 5.49527 17.1935C5.73829 17.1935 5.93524 17.3904 5.93524 17.6334V17.704C5.93524 18.2421 6.37145 18.6783 6.90955 18.6783C7.44765 18.6783 7.88385 18.2421 7.88385 17.704V14.2221H2.51526Z" fill="url(#paint28_linear_916_77)"/>
<path d="M31.721 12.6398C31.721 8.19269 0.278961 8.19269 0.278961 12.6398C0.278961 13.4066 1.21418 14.041 2.76141 14.5434C3.32348 14.7258 3.84188 15.0221 4.27532 15.4237L4.32182 15.4667C5.26425 16.3401 6.6287 16.5852 7.81609 16.0944L7.81697 16.094C8.83131 15.6747 9.98782 15.7875 10.9021 16.3948L10.989 16.4526C11.9972 17.1222 13.2936 17.1772 14.3548 16.5953L14.4358 16.5508C15.4104 16.0163 16.5904 16.0162 17.5651 16.5505L17.6468 16.5953C18.7081 17.177 20.0046 17.1219 21.0126 16.4521L21.1181 16.3821C22.0272 15.7781 23.1785 15.67 24.1842 16.0941C25.3629 16.5912 26.7235 16.3518 27.6617 15.4821L27.7249 15.4236C28.1582 15.0219 28.6766 14.7258 29.2386 14.5433C30.7859 14.041 31.721 13.4066 31.721 12.6398V12.6398Z" fill="url(#paint29_linear_916_77)"/>
<path d="M31.721 12.6401C31.721 13.4069 30.7854 14.0406 29.2383 14.5429C28.6765 14.726 28.1579 15.0222 27.7247 15.4238L27.6614 15.4823C27.0489 16.0508 26.2542 16.3498 25.449 16.3498C25.0224 16.3498 24.592 16.2664 24.1846 16.0939C23.179 15.6702 22.0277 15.7785 21.1181 16.3824L21.0126 16.4524C20.0051 17.1215 18.7081 17.1771 17.6469 16.5952L17.5654 16.5502C16.5906 16.0162 15.4105 16.0162 14.4356 16.5511L14.3551 16.5952C13.2939 17.177 11.9969 17.1225 10.9894 16.4524L10.9022 16.3949C9.9877 15.7871 8.83162 15.6749 7.81741 16.0939H7.81647C7.12151 16.3805 6.36706 16.4169 5.67115 16.2214L1.62491 12.1751C1.40926 11.9767 1.22711 11.7438 1.08618 11.4869C2.896 10.2896 7.52414 9.58501 12.6507 9.37318C14.8526 9.28214 17.1475 9.28214 19.3494 9.37318C25.9484 9.64543 31.721 10.7344 31.721 12.6401V12.6401Z" fill="url(#paint30_linear_916_77)"/>
<path d="M0.744843 10.0973V10.1677C0.744843 11.3942 1.56178 12.4735 2.74484 12.7969C5.82406 13.6388 10.6164 14.1799 16 14.1799C21.3836 14.1799 26.1759 13.6388 29.2551 12.7969C30.4382 12.4735 31.2551 11.3943 31.2551 10.1677C31.2551 10.1444 31.2551 10.121 31.2551 10.0976C31.2551 8.81086 30.0459 7.86855 28.7979 8.18146C25.713 8.95498 21.1251 9.44552 16 9.44552C10.8749 9.44552 6.28699 8.95498 3.20213 8.18153C1.954 7.86855 0.744843 8.81061 0.744843 10.0973V10.0973Z" fill="url(#paint31_linear_916_77)"/>
<path d="M31.2551 10.0979V10.1678C31.2551 11.3939 30.4384 12.4733 29.2555 12.7973C26.1756 13.639 21.3835 14.1796 16 14.1796C11.6757 14.1796 7.73301 13.8306 4.75275 13.2574L0.877106 9.38176C1.22415 8.48739 2.19996 7.93047 3.20169 8.18157C6.28649 8.95516 10.8753 9.44501 15.9999 9.44501C21.1246 9.44501 25.7134 8.95516 28.7982 8.18157C30.0464 7.86816 31.2551 8.81047 31.2551 10.0979Z" fill="url(#paint32_linear_916_77)"/>
<path d="M32 8.36504C32 12.8122 0 12.8122 0 8.36504C0 3.91792 7.16342 0.312836 16 0.312836C24.8366 0.312836 32 3.91792 32 8.36504Z" fill="url(#paint33_linear_916_77)"/>
<g opacity="0.6">
<g opacity="0.6">
<path opacity="0.6" d="M26.8247 7.43019C27.1167 7.43019 27.3535 7.19341 27.3535 6.90132C27.3535 6.60922 27.1167 6.37244 26.8247 6.37244C26.5326 6.37244 26.2958 6.60922 26.2958 6.90132C26.2958 7.19341 26.5326 7.43019 26.8247 7.43019Z" fill="url(#paint34_linear_916_77)"/>
<path opacity="0.6" d="M25.8426 8.68661C26.0733 8.68661 26.2602 8.49966 26.2602 8.26904C26.2602 8.03842 26.0733 7.85147 25.8426 7.85147C25.612 7.85147 25.4251 8.03842 25.4251 8.26904C25.4251 8.49966 25.612 8.68661 25.8426 8.68661Z" fill="url(#paint35_linear_916_77)"/>
<path opacity="0.6" d="M27.6626 8.87114C27.8017 8.87114 27.9144 8.75844 27.9144 8.61941C27.9144 8.48038 27.8017 8.36768 27.6626 8.36768C27.5236 8.36768 27.4109 8.48038 27.4109 8.61941C27.4109 8.75844 27.5236 8.87114 27.6626 8.87114Z" fill="url(#paint36_linear_916_77)"/>
</g>
<g opacity="0.6">
<path opacity="0.6" d="M29.6212 7.69077C29.8371 7.69077 30.0121 7.51578 30.0121 7.29993C30.0121 7.08407 29.8371 6.90909 29.6212 6.90909C29.4054 6.90909 29.2304 7.08407 29.2304 7.29993C29.2304 7.51578 29.4054 7.69077 29.6212 7.69077Z" fill="url(#paint37_linear_916_77)"/>
<path opacity="0.6" d="M28.3842 7.74146C28.5546 7.74146 28.6927 7.60333 28.6927 7.43294C28.6927 7.26255 28.5546 7.12442 28.3842 7.12442C28.2138 7.12442 28.0757 7.26255 28.0757 7.43294C28.0757 7.60333 28.2138 7.74146 28.3842 7.74146Z" fill="url(#paint38_linear_916_77)"/>
<path opacity="0.6" d="M29.0879 8.79389C29.1906 8.79389 29.2739 8.7106 29.2739 8.60785C29.2739 8.50511 29.1906 8.42181 29.0879 8.42181C28.9851 8.42181 28.9019 8.50511 28.9019 8.60785C28.9019 8.7106 28.9851 8.79389 29.0879 8.79389Z" fill="url(#paint39_linear_916_77)"/>
</g>
</g>
<path d="M0 8.36512C0 12.8122 32 12.8122 32 8.36512C32 7.54447 31.7554 6.75263 31.302 6.00665H0.698039C0.244643 6.75257 0 7.54441 0 8.36512Z" fill="url(#paint40_linear_916_77)"/>
<path d="M8.85638 7.38122C9.33997 7.38122 9.73199 7.20955 9.73199 6.99778C9.73199 6.78602 9.33997 6.61435 8.85638 6.61435C8.3728 6.61435 7.98077 6.78602 7.98077 6.99778C7.98077 7.20955 8.3728 7.38122 8.85638 7.38122Z" fill="url(#paint41_linear_916_77)"/>
<path d="M13.6188 7.38122C14.1024 7.38122 14.4944 7.20955 14.4944 6.99778C14.4944 6.78602 14.1024 6.61435 13.6188 6.61435C13.1352 6.61435 12.7432 6.78602 12.7432 6.99778C12.7432 7.20955 13.1352 7.38122 13.6188 7.38122Z" fill="url(#paint42_linear_916_77)"/>
<path d="M18.3812 7.38122C18.8647 7.38122 19.2568 7.20955 19.2568 6.99778C19.2568 6.78602 18.8647 6.61435 18.3812 6.61435C17.8976 6.61435 17.5056 6.78602 17.5056 6.99778C17.5056 7.20955 17.8976 7.38122 18.3812 7.38122Z" fill="url(#paint43_linear_916_77)"/>
<path d="M23.1436 7.38122C23.6271 7.38122 24.0192 7.20955 24.0192 6.99778C24.0192 6.78602 23.6271 6.61435 23.1436 6.61435C22.66 6.61435 22.2679 6.78602 22.2679 6.99778C22.2679 7.20955 22.66 7.38122 23.1436 7.38122Z" fill="url(#paint44_linear_916_77)"/>
<path d="M6.47522 5.17642C6.9588 5.17642 7.35082 5.00475 7.35082 4.79298C7.35082 4.58122 6.9588 4.40955 6.47522 4.40955C5.99163 4.40955 5.59961 4.58122 5.59961 4.79298C5.59961 5.00475 5.99163 5.17642 6.47522 5.17642Z" fill="url(#paint45_linear_916_77)"/>
<path d="M11.2376 5.17642C11.7212 5.17642 12.1132 5.00475 12.1132 4.79298C12.1132 4.58122 11.7212 4.40955 11.2376 4.40955C10.7541 4.40955 10.362 4.58122 10.362 4.79298C10.362 5.00475 10.7541 5.17642 11.2376 5.17642Z" fill="url(#paint46_linear_916_77)"/>
<path d="M16 5.17642C16.4836 5.17642 16.8756 5.00475 16.8756 4.79298C16.8756 4.58122 16.4836 4.40955 16 4.40955C15.5164 4.40955 15.1244 4.58122 15.1244 4.79298C15.1244 5.00475 15.5164 5.17642 16 5.17642Z" fill="url(#paint47_linear_916_77)"/>
<path d="M20.7623 5.17642C21.2459 5.17642 21.6379 5.00475 21.6379 4.79298C21.6379 4.58122 21.2459 4.40955 20.7623 4.40955C20.2787 4.40955 19.8867 4.58122 19.8867 4.79298C19.8867 5.00475 20.2787 5.17642 20.7623 5.17642Z" fill="url(#paint48_linear_916_77)"/>
<path d="M25.5247 5.17642C26.0083 5.17642 26.4004 5.00475 26.4004 4.79298C26.4004 4.58122 26.0083 4.40955 25.5247 4.40955C25.0412 4.40955 24.6491 4.58122 24.6491 4.79298C24.6491 5.00475 25.0412 5.17642 25.5247 5.17642Z" fill="url(#paint49_linear_916_77)"/>
<path d="M8.85638 2.97167C9.33997 2.97167 9.73199 2.8 9.73199 2.58824C9.73199 2.37647 9.33997 2.2048 8.85638 2.2048C8.3728 2.2048 7.98077 2.37647 7.98077 2.58824C7.98077 2.8 8.3728 2.97167 8.85638 2.97167Z" fill="url(#paint50_linear_916_77)"/>
<path d="M13.6188 2.97167C14.1024 2.97167 14.4944 2.8 14.4944 2.58824C14.4944 2.37647 14.1024 2.2048 13.6188 2.2048C13.1352 2.2048 12.7432 2.37647 12.7432 2.58824C12.7432 2.8 13.1352 2.97167 13.6188 2.97167Z" fill="url(#paint51_linear_916_77)"/>
<path d="M18.3812 2.97167C18.8647 2.97167 19.2568 2.8 19.2568 2.58824C19.2568 2.37647 18.8647 2.2048 18.3812 2.2048C17.8976 2.2048 17.5056 2.37647 17.5056 2.58824C17.5056 2.8 17.8976 2.97167 18.3812 2.97167Z" fill="url(#paint52_linear_916_77)"/>
<path d="M23.1436 2.97167C23.6271 2.97167 24.0192 2.8 24.0192 2.58824C24.0192 2.37647 23.6271 2.2048 23.1436 2.2048C22.66 2.2048 22.2679 2.37647 22.2679 2.58824C22.2679 2.8 22.66 2.97167 23.1436 2.97167Z" fill="url(#paint53_linear_916_77)"/>
<path d="M16 0.766871C16.4836 0.766871 16.8756 0.595201 16.8756 0.383435C16.8756 0.17167 16.4836 0 16 0C15.5164 0 15.1244 0.17167 15.1244 0.383435C15.1244 0.595201 15.5164 0.766871 16 0.766871Z" fill="url(#paint54_linear_916_77)"/>
<path d="M21.5318 0.811598C21.4903 1.01928 21.0722 1.11077 20.598 1.01602C20.1238 0.921276 19.773 0.676068 19.8145 0.468382C19.856 0.260696 20.2741 0.169214 20.7483 0.263959C21.2224 0.358704 21.5733 0.603912 21.5318 0.811598V0.811598Z" fill="url(#paint55_linear_916_77)"/>
<path d="M10.4682 0.811598C10.5097 1.01928 10.9278 1.11077 11.402 1.01602C11.8762 0.921276 12.227 0.676068 12.1855 0.468382C12.1439 0.260696 11.7258 0.169214 11.2517 0.263959C10.7775 0.358766 10.4266 0.603912 10.4682 0.811598V0.811598Z" fill="url(#paint56_linear_916_77)"/>
<defs>
<linearGradient id="paint0_linear_916_77" x1="15.8644" y1="26.2101" x2="17.9733" y2="34.5499" gradientUnits="userSpaceOnUse">
<stop stop-color="#FAA68E"/>
<stop offset="0.2061" stop-color="#FBA682"/>
<stop offset="0.5808" stop-color="#FDA861"/>
<stop offset="1" stop-color="#FFA936"/>
</linearGradient>
<linearGradient id="paint1_linear_916_77" x1="22.9849" y1="32.4844" x2="18.7031" y2="21.2368" gradientUnits="userSpaceOnUse">
<stop stop-color="#F82814" stop-opacity="0"/>
<stop offset="0.2454" stop-color="#F12817" stop-opacity="0.245"/>
<stop offset="0.6052" stop-color="#DD2820" stop-opacity="0.605"/>
<stop offset="1" stop-color="#C0272D"/>
</linearGradient>
<linearGradient id="paint2_linear_916_77" x1="29.3264" y1="28.2626" x2="27.7687" y2="24.2365" gradientUnits="userSpaceOnUse">
<stop stop-color="#F82814" stop-opacity="0"/>
<stop offset="0.2454" stop-color="#F12817" stop-opacity="0.245"/>
<stop offset="0.6052" stop-color="#DD2820" stop-opacity="0.605"/>
<stop offset="1" stop-color="#C0272D"/>
</linearGradient>
<linearGradient id="paint3_linear_916_77" x1="5.02189" y1="28.6747" x2="3.67049" y2="26.5659" gradientUnits="userSpaceOnUse">
<stop stop-color="#F82814" stop-opacity="0"/>
<stop offset="0.2454" stop-color="#F12817" stop-opacity="0.245"/>
<stop offset="0.6052" stop-color="#DD2820" stop-opacity="0.605"/>
<stop offset="1" stop-color="#C0272D"/>
</linearGradient>
<linearGradient id="paint4_linear_916_77" x1="3.948" y1="29.9004" x2="2.88111" y2="28.2355" gradientUnits="userSpaceOnUse">
<stop stop-color="#F82814" stop-opacity="0"/>
<stop offset="0.2454" stop-color="#F12817" stop-opacity="0.245"/>
<stop offset="0.6052" stop-color="#DD2820" stop-opacity="0.605"/>
<stop offset="1" stop-color="#C0272D"/>
</linearGradient>
<linearGradient id="paint5_linear_916_77" x1="5.63268" y1="30.0381" x2="4.98949" y2="29.0344" gradientUnits="userSpaceOnUse">
<stop stop-color="#F82814" stop-opacity="0"/>
<stop offset="0.2454" stop-color="#F12817" stop-opacity="0.245"/>
<stop offset="0.6052" stop-color="#DD2820" stop-opacity="0.605"/>
<stop offset="1" stop-color="#C0272D"/>
</linearGradient>
<linearGradient id="paint6_linear_916_77" x1="7.23004" y1="28.959" x2="7.72542" y2="27.1761" gradientUnits="userSpaceOnUse">
<stop stop-color="#F82814" stop-opacity="0"/>
<stop offset="0.2454" stop-color="#F12817" stop-opacity="0.245"/>
<stop offset="0.6052" stop-color="#DD2820" stop-opacity="0.605"/>
<stop offset="1" stop-color="#C0272D"/>
</linearGradient>
<linearGradient id="paint7_linear_916_77" x1="6.02625" y1="28.9715" x2="6.41728" y2="27.564" gradientUnits="userSpaceOnUse">
<stop stop-color="#F82814" stop-opacity="0"/>
<stop offset="0.2454" stop-color="#F12817" stop-opacity="0.245"/>
<stop offset="0.6052" stop-color="#DD2820" stop-opacity="0.605"/>
<stop offset="1" stop-color="#C0272D"/>
</linearGradient>
<linearGradient id="paint8_linear_916_77" x1="6.78029" y1="29.9669" x2="7.01612" y2="29.1184" gradientUnits="userSpaceOnUse">
<stop stop-color="#F82814" stop-opacity="0"/>
<stop offset="0.2454" stop-color="#F12817" stop-opacity="0.245"/>
<stop offset="0.6052" stop-color="#DD2820" stop-opacity="0.605"/>
<stop offset="1" stop-color="#C0272D"/>
</linearGradient>
<linearGradient id="paint9_linear_916_77" x1="16" y1="29.445" x2="16" y2="33.3621" gradientUnits="userSpaceOnUse">
<stop stop-color="#F82814" stop-opacity="0"/>
<stop offset="0.2454" stop-color="#F12817" stop-opacity="0.245"/>
<stop offset="0.6052" stop-color="#DD2820" stop-opacity="0.605"/>
<stop offset="1" stop-color="#C0272D"/>
</linearGradient>
<linearGradient id="paint10_linear_916_77" x1="16" y1="21.8081" x2="16" y2="28.6628" gradientUnits="userSpaceOnUse">
<stop stop-color="#A57C52"/>
<stop offset="0.1339" stop-color="#A26C4A"/>
<stop offset="0.5155" stop-color="#994336"/>
<stop offset="0.8174" stop-color="#942A2A"/>
<stop offset="1" stop-color="#922125"/>
</linearGradient>
<linearGradient id="paint11_linear_916_77" x1="16.3386" y1="24.946" x2="16.051" y2="19.3222" gradientUnits="userSpaceOnUse">
<stop stop-color="#42210B" stop-opacity="0"/>
<stop offset="1" stop-color="#42210B"/>
</linearGradient>
<linearGradient id="paint12_linear_916_77" x1="30.1784" y1="26.6768" x2="26.3201" y2="21.8598" gradientUnits="userSpaceOnUse">
<stop stop-color="#42210B" stop-opacity="0"/>
<stop offset="1" stop-color="#42210B"/>
</linearGradient>
<linearGradient id="paint13_linear_916_77" x1="18.9373" y1="28.4476" x2="17.9787" y2="24.4455" gradientUnits="userSpaceOnUse">
<stop stop-color="#42210B" stop-opacity="0"/>
<stop offset="1" stop-color="#42210B"/>
</linearGradient>
<linearGradient id="paint14_linear_916_77" x1="14.8814" y1="21.8897" x2="20.5038" y2="27.512" gradientUnits="userSpaceOnUse">
<stop stop-color="#FFD945"/>
<stop offset="0.3043" stop-color="#FFCD3E"/>
<stop offset="0.8558" stop-color="#FFAD2B"/>
<stop offset="1" stop-color="#FFA325"/>
</linearGradient>
<linearGradient id="paint15_linear_916_77" x1="16" y1="19.9868" x2="16" y2="25.8079" gradientUnits="userSpaceOnUse">
<stop stop-color="#BADA00"/>
<stop offset="0.2269" stop-color="#B0CE00"/>
<stop offset="0.6378" stop-color="#95AE00"/>
<stop offset="1" stop-color="#798C00"/>
</linearGradient>
<linearGradient id="paint16_linear_916_77" x1="16.3582" y1="23.8802" x2="16.4221" y2="18.4482" gradientUnits="userSpaceOnUse">
<stop stop-color="#798C00" stop-opacity="0"/>
<stop offset="0.6542" stop-color="#556100" stop-opacity="0.654"/>
<stop offset="1" stop-color="#464F00"/>
</linearGradient>
<linearGradient id="paint17_linear_916_77" x1="11.7818" y1="24.1176" x2="6.31774" y2="14.2441" gradientUnits="userSpaceOnUse">
<stop stop-color="#798C00" stop-opacity="0"/>
<stop offset="0.6542" stop-color="#556100" stop-opacity="0.654"/>
<stop offset="1" stop-color="#464F00"/>
</linearGradient>
<linearGradient id="paint18_linear_916_77" x1="28.2818" y1="24.5594" x2="26.1968" y2="20.8209" gradientUnits="userSpaceOnUse">
<stop stop-color="#798C00" stop-opacity="0"/>
<stop offset="0.6542" stop-color="#556100" stop-opacity="0.654"/>
<stop offset="1" stop-color="#464F00"/>
</linearGradient>
<linearGradient id="paint19_linear_916_77" x1="25.6002" y1="21.2525" x2="27.9639" y2="24.2952" gradientUnits="userSpaceOnUse">
<stop stop-color="#FFDECF"/>
<stop offset="0.3791" stop-color="#FDC4B0"/>
<stop offset="0.7655" stop-color="#FBAE97"/>
<stop offset="1" stop-color="#FAA68E"/>
</linearGradient>
<linearGradient id="paint20_linear_916_77" x1="16" y1="19.172" x2="16" y2="22.0514" gradientUnits="userSpaceOnUse">
<stop stop-color="#FF6359"/>
<stop offset="0.2243" stop-color="#FE5B50"/>
<stop offset="0.5952" stop-color="#FC4637"/>
<stop offset="1" stop-color="#F82814"/>
</linearGradient>
<linearGradient id="paint21_linear_916_77" x1="9.9973" y1="23.2216" x2="8.01619" y2="16.6073" gradientUnits="userSpaceOnUse">
<stop stop-color="#F82814" stop-opacity="0"/>
<stop offset="1" stop-color="#C0272D"/>
</linearGradient>
<linearGradient id="paint22_linear_916_77" x1="24.9745" y1="22.5678" x2="23.7603" y2="19.3086" gradientUnits="userSpaceOnUse">
<stop stop-color="#F82814" stop-opacity="0"/>
<stop offset="1" stop-color="#C0272D"/>
</linearGradient>
<linearGradient id="paint23_linear_916_77" x1="16" y1="13.8541" x2="16" y2="20.7087" gradientUnits="userSpaceOnUse">
<stop stop-color="#A57C52"/>
<stop offset="0.1339" stop-color="#A26C4A"/>
<stop offset="0.5155" stop-color="#994336"/>
<stop offset="0.8174" stop-color="#942A2A"/>
<stop offset="1" stop-color="#922125"/>
</linearGradient>
<linearGradient id="paint24_linear_916_77" x1="16.3386" y1="16.9919" x2="16.051" y2="11.3682" gradientUnits="userSpaceOnUse">
<stop stop-color="#42210B" stop-opacity="0"/>
<stop offset="1" stop-color="#42210B"/>
</linearGradient>
<linearGradient id="paint25_linear_916_77" x1="24.27" y1="20.8912" x2="21.1066" y2="15.0757" gradientUnits="userSpaceOnUse">
<stop stop-color="#42210B" stop-opacity="0"/>
<stop offset="1" stop-color="#42210B"/>
</linearGradient>
<linearGradient id="paint26_linear_916_77" x1="19.2133" y1="13.9356" x2="24.8357" y2="19.558" gradientUnits="userSpaceOnUse">
<stop stop-color="#FFD945"/>
<stop offset="0.3043" stop-color="#FFCD3E"/>
<stop offset="0.8558" stop-color="#FFAD2B"/>
<stop offset="1" stop-color="#FFA325"/>
</linearGradient>
<linearGradient id="paint27_linear_916_77" x1="8.26026" y1="19.9723" x2="6.85433" y2="15.7864" gradientUnits="userSpaceOnUse">
<stop stop-color="#42210B" stop-opacity="0"/>
<stop offset="1" stop-color="#42210B"/>
</linearGradient>
<linearGradient id="paint28_linear_916_77" x1="4.39937" y1="15.5489" x2="6.7631" y2="18.5915" gradientUnits="userSpaceOnUse">
<stop stop-color="#FFDECF"/>
<stop offset="0.3791" stop-color="#FDC4B0"/>
<stop offset="0.7655" stop-color="#FBAE97"/>
<stop offset="1" stop-color="#FAA68E"/>
</linearGradient>
<linearGradient id="paint29_linear_916_77" x1="16" y1="12.0327" x2="16" y2="17.8539" gradientUnits="userSpaceOnUse">
<stop stop-color="#BADA00"/>
<stop offset="0.2269" stop-color="#B0CE00"/>
<stop offset="0.6378" stop-color="#95AE00"/>
<stop offset="1" stop-color="#798C00"/>
</linearGradient>
<linearGradient id="paint30_linear_916_77" x1="16.3582" y1="15.9265" x2="16.4221" y2="10.4945" gradientUnits="userSpaceOnUse">
<stop stop-color="#798C00" stop-opacity="0"/>
<stop offset="0.6542" stop-color="#556100" stop-opacity="0.654"/>
<stop offset="1" stop-color="#464F00"/>
</linearGradient>
<linearGradient id="paint31_linear_916_77" x1="16" y1="11.2179" x2="16" y2="14.0973" gradientUnits="userSpaceOnUse">
<stop stop-color="#FF6359"/>
<stop offset="0.2243" stop-color="#FE5B50"/>
<stop offset="0.5952" stop-color="#FC4637"/>
<stop offset="1" stop-color="#F82814"/>
</linearGradient>
<linearGradient id="paint32_linear_916_77" x1="16.0215" y1="14.2459" x2="16.0695" y2="9.45298" gradientUnits="userSpaceOnUse">
<stop stop-color="#F82814" stop-opacity="0"/>
<stop offset="1" stop-color="#C0272D"/>
</linearGradient>
<linearGradient id="paint33_linear_916_77" x1="14.33" y1="1.85153" x2="17.3207" y2="13.1389" gradientUnits="userSpaceOnUse">
<stop stop-color="#FAA68E"/>
<stop offset="0.2061" stop-color="#FBA682"/>
<stop offset="0.5808" stop-color="#FDA861"/>
<stop offset="1" stop-color="#FFA936"/>
</linearGradient>
<linearGradient id="paint34_linear_916_77" x1="27.2647" y1="7.58661" x2="25.9133" y2="5.47773" gradientUnits="userSpaceOnUse">
<stop stop-color="#F82814" stop-opacity="0"/>
<stop offset="0.2454" stop-color="#F12817" stop-opacity="0.245"/>
<stop offset="0.6052" stop-color="#DD2820" stop-opacity="0.605"/>
<stop offset="1" stop-color="#C0272D"/>
</linearGradient>
<linearGradient id="paint35_linear_916_77" x1="26.1909" y1="8.81236" x2="25.124" y2="7.14748" gradientUnits="userSpaceOnUse">
<stop stop-color="#F82814" stop-opacity="0"/>
<stop offset="0.2454" stop-color="#F12817" stop-opacity="0.245"/>
<stop offset="0.6052" stop-color="#DD2820" stop-opacity="0.605"/>
<stop offset="1" stop-color="#C0272D"/>
</linearGradient>
<linearGradient id="paint36_linear_916_77" x1="27.8755" y1="8.95006" x2="27.2324" y2="7.94629" gradientUnits="userSpaceOnUse">
<stop stop-color="#F82814" stop-opacity="0"/>
<stop offset="0.2454" stop-color="#F12817" stop-opacity="0.245"/>
<stop offset="0.6052" stop-color="#DD2820" stop-opacity="0.605"/>
<stop offset="1" stop-color="#C0272D"/>
</linearGradient>
<linearGradient id="paint37_linear_916_77" x1="29.4664" y1="7.87376" x2="29.9618" y2="6.0909" gradientUnits="userSpaceOnUse">
<stop stop-color="#F82814" stop-opacity="0"/>
<stop offset="0.2454" stop-color="#F12817" stop-opacity="0.245"/>
<stop offset="0.6052" stop-color="#DD2820" stop-opacity="0.605"/>
<stop offset="1" stop-color="#C0272D"/>
</linearGradient>
<linearGradient id="paint38_linear_916_77" x1="28.2625" y1="7.88633" x2="28.6536" y2="6.47881" gradientUnits="userSpaceOnUse">
<stop stop-color="#F82814" stop-opacity="0"/>
<stop offset="0.2454" stop-color="#F12817" stop-opacity="0.245"/>
<stop offset="0.6052" stop-color="#DD2820" stop-opacity="0.605"/>
<stop offset="1" stop-color="#C0272D"/>
</linearGradient>
<linearGradient id="paint39_linear_916_77" x1="29.0166" y1="8.88168" x2="29.2524" y2="8.03319" gradientUnits="userSpaceOnUse">
<stop stop-color="#F82814" stop-opacity="0"/>
<stop offset="0.2454" stop-color="#F12817" stop-opacity="0.245"/>
<stop offset="0.6052" stop-color="#DD2820" stop-opacity="0.605"/>
<stop offset="1" stop-color="#C0272D"/>
</linearGradient>
<linearGradient id="paint40_linear_916_77" x1="16" y1="7.47859" x2="16" y2="13.1724" gradientUnits="userSpaceOnUse">
<stop stop-color="#F82814" stop-opacity="0"/>
<stop offset="0.2497" stop-color="#F32816" stop-opacity="0.25"/>
<stop offset="0.5421" stop-color="#E5281D" stop-opacity="0.542"/>
<stop offset="0.8547" stop-color="#CE2727" stop-opacity="0.855"/>
<stop offset="1" stop-color="#C0272D"/>
</linearGradient>
<linearGradient id="paint41_linear_916_77" x1="8.77168" y1="6.75214" x2="9.09124" y2="7.67876" gradientUnits="userSpaceOnUse">
<stop stop-color="#FFDECF"/>
<stop offset="0.3791" stop-color="#FDC4B0"/>
<stop offset="0.7655" stop-color="#FBAE97"/>
<stop offset="1" stop-color="#FAA68E"/>
</linearGradient>
<linearGradient id="paint42_linear_916_77" x1="13.5341" y1="6.75214" x2="13.8536" y2="7.67876" gradientUnits="userSpaceOnUse">
<stop stop-color="#FFDECF"/>
<stop offset="0.3791" stop-color="#FDC4B0"/>
<stop offset="0.7655" stop-color="#FBAE97"/>
<stop offset="1" stop-color="#FAA68E"/>
</linearGradient>
<linearGradient id="paint43_linear_916_77" x1="18.2965" y1="6.75214" x2="18.616" y2="7.67876" gradientUnits="userSpaceOnUse">
<stop stop-color="#FFDECF"/>
<stop offset="0.3791" stop-color="#FDC4B0"/>
<stop offset="0.7655" stop-color="#FBAE97"/>
<stop offset="1" stop-color="#FAA68E"/>
</linearGradient>
<linearGradient id="paint44_linear_916_77" x1="23.0588" y1="6.75214" x2="23.3783" y2="7.67876" gradientUnits="userSpaceOnUse">
<stop stop-color="#FFDECF"/>
<stop offset="0.3791" stop-color="#FDC4B0"/>
<stop offset="0.7655" stop-color="#FBAE97"/>
<stop offset="1" stop-color="#FAA68E"/>
</linearGradient>
<linearGradient id="paint45_linear_916_77" x1="6.39051" y1="4.54733" x2="6.71007" y2="5.47402" gradientUnits="userSpaceOnUse">
<stop stop-color="#FFDECF"/>
<stop offset="0.3791" stop-color="#FDC4B0"/>
<stop offset="0.7655" stop-color="#FBAE97"/>
<stop offset="1" stop-color="#FAA68E"/>
</linearGradient>
<linearGradient id="paint46_linear_916_77" x1="11.1529" y1="4.54733" x2="11.4724" y2="5.47402" gradientUnits="userSpaceOnUse">
<stop stop-color="#FFDECF"/>
<stop offset="0.3791" stop-color="#FDC4B0"/>
<stop offset="0.7655" stop-color="#FBAE97"/>
<stop offset="1" stop-color="#FAA68E"/>
</linearGradient>
<linearGradient id="paint47_linear_916_77" x1="15.9153" y1="4.54733" x2="16.2349" y2="5.47402" gradientUnits="userSpaceOnUse">
<stop stop-color="#FFDECF"/>
<stop offset="0.3791" stop-color="#FDC4B0"/>
<stop offset="0.7655" stop-color="#FBAE97"/>
<stop offset="1" stop-color="#FAA68E"/>
</linearGradient>
<linearGradient id="paint48_linear_916_77" x1="20.6776" y1="4.54733" x2="20.9972" y2="5.47402" gradientUnits="userSpaceOnUse">
<stop stop-color="#FFDECF"/>
<stop offset="0.3791" stop-color="#FDC4B0"/>
<stop offset="0.7655" stop-color="#FBAE97"/>
<stop offset="1" stop-color="#FAA68E"/>
</linearGradient>
<linearGradient id="paint49_linear_916_77" x1="25.44" y1="4.54733" x2="25.7595" y2="5.47402" gradientUnits="userSpaceOnUse">
<stop stop-color="#FFDECF"/>
<stop offset="0.3791" stop-color="#FDC4B0"/>
<stop offset="0.7655" stop-color="#FBAE97"/>
<stop offset="1" stop-color="#FAA68E"/>
</linearGradient>
<linearGradient id="paint50_linear_916_77" x1="8.77168" y1="2.34259" x2="9.09124" y2="3.26921" gradientUnits="userSpaceOnUse">
<stop stop-color="#FFDECF"/>
<stop offset="0.3791" stop-color="#FDC4B0"/>
<stop offset="0.7655" stop-color="#FBAE97"/>
<stop offset="1" stop-color="#FAA68E"/>
</linearGradient>
<linearGradient id="paint51_linear_916_77" x1="13.5341" y1="2.34259" x2="13.8536" y2="3.26921" gradientUnits="userSpaceOnUse">
<stop stop-color="#FFDECF"/>
<stop offset="0.3791" stop-color="#FDC4B0"/>
<stop offset="0.7655" stop-color="#FBAE97"/>
<stop offset="1" stop-color="#FAA68E"/>
</linearGradient>
<linearGradient id="paint52_linear_916_77" x1="18.2965" y1="2.34259" x2="18.616" y2="3.26921" gradientUnits="userSpaceOnUse">
<stop stop-color="#FFDECF"/>
<stop offset="0.3791" stop-color="#FDC4B0"/>
<stop offset="0.7655" stop-color="#FBAE97"/>
<stop offset="1" stop-color="#FAA68E"/>
</linearGradient>
<linearGradient id="paint53_linear_916_77" x1="23.0588" y1="2.34259" x2="23.3783" y2="3.26921" gradientUnits="userSpaceOnUse">
<stop stop-color="#FFDECF"/>
<stop offset="0.3791" stop-color="#FDC4B0"/>
<stop offset="0.7655" stop-color="#FBAE97"/>
<stop offset="1" stop-color="#FAA68E"/>
</linearGradient>
<linearGradient id="paint54_linear_916_77" x1="15.9153" y1="0.137788" x2="16.2349" y2="1.06441" gradientUnits="userSpaceOnUse">
<stop stop-color="#FFDECF"/>
<stop offset="0.3791" stop-color="#FDC4B0"/>
<stop offset="0.7655" stop-color="#FBAE97"/>
<stop offset="1" stop-color="#FAA68E"/>
</linearGradient>
<linearGradient id="paint55_linear_916_77" x1="20.6485" y1="0.37762" x2="20.7803" y2="1.34927" gradientUnits="userSpaceOnUse">
<stop stop-color="#FFDECF"/>
<stop offset="0.3791" stop-color="#FDC4B0"/>
<stop offset="0.7655" stop-color="#FBAE97"/>
<stop offset="1" stop-color="#FAA68E"/>
</linearGradient>
<linearGradient id="paint56_linear_916_77" x1="11.4009" y1="0.385053" x2="11.2691" y2="1.35676" gradientUnits="userSpaceOnUse">
<stop stop-color="#FFDECF"/>
<stop offset="0.3791" stop-color="#FDC4B0"/>
<stop offset="0.7655" stop-color="#FBAE97"/>
<stop offset="1" stop-color="#FAA68E"/>
</linearGradient>
</defs>
</svg>
